# AST/ASF file generated using VICON BodyLanguage
# -----------------------------------------------
:version 1.10
:name VICON
:units
  mass 1.0
  length 0.45
  angle deg
:documentation
   .ast/.asf automatically generated from VICON data using
   VICON BodyBuilder and BodyLanguage model FoxedUp or BRILLIANT.MOD
:root
   order TX TY TZ RX RY RZ
   axis XYZ
   position 0 0 0  
   orientation 0 0 0 
:bonedata
  begin
     id 1 
     name lhipjoint
     direction 0.635376 -0.686425 0.353719 
     length 2.47244 
     axis 0 0 0  XYZ
  end
  begin
     id 2 
     name lfemur
     direction 0.34202 -0.939693 0  
     length 7.25268  
     axis 0 0 20  XYZ
    dof rx ry rz
    limits (-160.0 20.0)
           (-70.0 70.0)
           (-60.0 70.0)
  end
  begin
     id 3 
     name ltibia
     direction 0.34202 -0.939693 0   
     length 7.6767   
     axis 0 0 20   XYZ
    dof rx
    limits (-10.0 170.0)
  end
  begin
     id 4 
     name lfoot
     direction 0.0803374 -0.220725 0.972022   
     length 2.22945   
     axis -90 7.62852e-016 20   XYZ
    dof rx rz
    limits (-45.0 90.0)
           (-70.0 20.0)
  end
  begin
     id 5 
     name ltoes
     direction 1.53579e-011 -4.21994e-011 1   
     length 1.11848   
     axis -90 7.62852e-016 20   XYZ
    dof rx
    limits (-90.0 20.0)
  end
  begin
     id 6 
     name rhipjoint
     direction -0.664428 -0.664335 0.342336   
     length 2.55466  
     axis 0 0 0  XYZ 
  end
  begin
     id 7 
     name rfemur
     direction -0.34202 -0.939693 0   
     length 6.83172   
     axis 0 0 -20   XYZ
    dof rx ry rz
    limits (-160.0 20.0)
           (-70.0 70.0)
           (-70.0 60.0)
  end
  begin
     id 8 
     name rtibia
     direction -0.34202 -0.939693 0   
     length 7.62692   
     axis 0 0 -20   XYZ
    dof rx
    limits (-10.0 170.0)
 end
 begin
     id 9 
     name rfoot
     direction -0.0949276 -0.260811 0.960711   
     length 2.19684  
     axis -90 -7.62852e-016 -20   XYZ
    dof rx rz
    limits (-45.0 90.0)
           (-20.0 70.0)
  end
  begin
     id 10 
     name rtoes
     direction -1.53543e-011 -4.2183e-011 1   
     length 1.09848   
     axis -90 -7.62852e-016 -20   XYZ
    dof rx
    limits (-90.0 20.0)
  end
  begin
     id 11 
     name lowerback
     direction 0.0118782 0.999815 -0.0151555   
     length 2.15772   
     axis 0 0 0   XYZ
    dof rx ry rz
    limits (-20.0 45.0)
           (-30.0 30.0)
           (-30.0 30.0)
  end
  begin
     id 12 
     name upperback
     direction 0.00130825 0.999065 0.0432113   
     length 2.14863   
     axis 0 0 0   XYZ
    dof rx ry rz
    limits (-20.0 45.0)
           (-30.0 30.0)
           (-30.0 30.0)
  end
  begin
     id 13 
     name thorax
     direction -0.00347005 0.998773 0.0494011   
     length 2.14936   
     axis 0 0 0   XYZ
    dof rx ry rz
    limits (-20.0 45.0)
           (-30.0 30.0)
           (-30.0 30.0)
  end
  begin
     id 14 
     name lowerneck
     direction -0.0262159 0.99424 0.103921   
     length 1.69373   
     axis 0 0 0   XYZ
    dof rx ry rz
    limits (-20.0 45.0)
           (-30.0 30.0)
           (-30.0 30.0)
  end
  begin
     id 15 
     name upperneck
     direction 0.0353511 0.977394 -0.20845   
     length 1.70857   
     axis 0 0 0   XYZ
    dof rx ry rz
    limits (-20.0 45.0)
           (-30.0 30.0)
           (-30.0 30.0)
  end
  begin
     id 16
     name head
     direction 0.0139214 0.996594 -0.0812836  
     length 1.72777  
     axis 0 0 0   XYZ
    dof rx ry rz
    limits (-20.0 45.0)
           (-30.0 30.0)
           (-30.0 30.0)
  end
  begin
     id 17 
     name lclavicle
     direction 0.841247 0.537205 -0.0609508  
     length 3.55371  
     axis 0 0 0   XYZ
    dof ry rz
    limits (-20.0 10.0)
           (0.0 20.0)
  end
  begin
     id 18 
     name lhumerus
     direction 1 -4.48964e-011 1.60116e-018   
     length 4.91377   
     axis -180 -30 -90   XYZ
    dof rx ry rz
    limits (-60.0 90.0)
           (-90.0 90.0)
           (-90.0 90.0)
  end
  begin
     id 19
     name lradius
     direction 1 -4.48989e-011 -8.93847e-027   
     length 3.00291   
     axis -180 -30 -90   XYZ
    dof rx
    limits (-10.0 170.0)
  end
  begin
     id 20
     name lwrist
     direction 1 -4.48932e-011 -7.31504e-027   
     length 1.50145   
     axis 5.74121e-015 90 90   XYZ
    dof ry
    limits (-180.0 0.0)
 end
  begin
     id 21 
     name lhand
     direction 1 -4.48971e-011 -1.46301e-026   
     length 0.450922   
     axis 9.33524e-015 90 90   XYZ
    dof rx rz
    limits (-90.0 90.0)
           (-45.0 45.0)
  end
  begin
     id 22 
     name lfingers
     direction 1 -4.49039e-011 -2.92602e-026   
     length 0.363545   
     axis 1.86705e-014 90 90   XYZ
    dof rx
    limits (0.0 90.0)
  end
  begin
     id 23
     name lthumb
     direction 0.707107 -6.34941e-011 0.707107   
     length 0.52198   
     axis -90 45 2.85299e-015   XYZ
    dof rx rz
    limits (-45.0 45.0)
           (-45.0 45.0)
  end
  begin
     id 24 
     name rclavicle
     direction -0.825079 0.56158 -0.0622297   
     length 3.39909  
     axis 0 0 0   XYZ 
    dof ry rz
    limits (-10.0 20.0)
           (-20.0 0.0)
  end
  begin
     id 25 
     name rhumerus
     direction -1 -4.48965e-011 1.61691e-027  
     length 4.86725   
     axis -180 30 90   XYZ
    dof rx ry rz
    limits (-90.0 60.0)
           (-90.0 90.0)
           (-90.0 90.0)
  end
  begin
     id 26 
     name rradius
     direction -1 -4.48964e-011 -2.25776e-027   
     length 3.17144   
     axis -180 30 90   XYZ
    dof rx
    limits (-10.0 170.0)
  end
  begin
     id 27 
     name rwrist
     direction -1 -4.48961e-011 -7.31504e-027   
     length 1.58572   
     axis 5.74121e-015 -90 -90   XYZ
    dof ry
    limits (-180.0 0.0)
  end
  begin
     id 28
     name rhand
     direction -1 -4.49013e-011 -1.46301e-026   
     length 0.419368   
     axis 9.33524e-015 -90 -90   XYZ
    dof rx rz
    limits (-90.0 90.0)
           (-45.0 45.0)
  end
  begin
     id 29
     name rfingers
     direction -1 -4.489e-011 -2.92602e-026   
     length 0.338105   
     axis 1.86705e-014 -90 -90   XYZ
    dof rx
    limits (0.0 90.0)
  end
  begin
     id 30
     name rthumb
     direction -0.707107 -6.35022e-011 0.707107   
     length 0.485453   
     axis -90 -45 -2.85299e-015   XYZ
    dof rx rz
    limits (-45.0 45.0)
           (-45.0 45.0)
  end
:hierarchy
  begin
    root lhipjoint rhipjoint lowerback
    lhipjoint lfemur
    lfemur ltibia
    ltibia lfoot
    lfoot ltoes
    rhipjoint rfemur
    rfemur rtibia
    rtibia rfoot
    rfoot rtoes
    lowerback upperback
    upperback thorax
    thorax lowerneck lclavicle rclavicle
    lowerneck upperneck
    upperneck head
    lclavicle lhumerus
    lhumerus lradius
    lradius lwrist
    lwrist lhand lthumb
    lhand lfingers
    rclavicle rhumerus
    rhumerus rradius
    rradius rwrist
    rwrist rhand rthumb
    rhand rfingers
  end

#!OML:ASF H:\Swim 2\Project 1\Capture day 1\Session 1\male.ASF
:FULLY-SPECIFIED
:DEGREES
744
root 7.45253 9.8723 11.9236 95.4761 -2.11846 5.66945
lowerback 1.33732 1.41016 -1.99189
upperback -5.92988 2.29306 6.94199
thorax -7.38407 1.52168 8.36065
lowerneck -15.8398 3.38272 0.0251345
upperneck 21.4172 6.85556 -9.33456
head 9.77997 2.13531 -2.35303
rclavicle -2.06736e-014 2.00773e-014
rhumerus 85.4932 -24.4003 -23.3003
rradius 21.663
rwrist 31.3642
rhand -31.4088 2.26428
rfingers 7.12502
rthumb -4.67791 -27.6641
lclavicle -2.06736e-014 2.00773e-014
lhumerus -24.3569 10.0342 -4.10933
lradius 16.8668
lwrist -4.50314
lhand -38.1765 -9.36777
lfingers 7.12502
lthumb -11.2095 20.3128
rfemur -33.6286 8.23287 16.6175
rtibia 25.5994
rfoot 33.3558 -4.17237
rtoes 19.1941
lfemur -26.5035 -6.15378 -25.2382
ltibia 35.3906
lfoot 3.78217 2.14601
ltoes 0.733642
745
root 7.45855 9.8791 11.9321 95.4374 -2.20598 5.83966
lowerback 1.43678 1.13936 -1.87706
upperback -5.83863 1.92585 7.04531
thorax -7.28186 1.32609 8.43584
lowerneck -15.9962 3.548 -0.538161
upperneck 21.0912 7.15855 -9.15221
head 9.68591 2.25733 -2.14852
rclavicle -2.38542e-014 -4.05521e-014
rhumerus 86.2905 -24.2677 -24.8402
rradius 21.3644
rwrist 31.9237
rhand -31.5856 2.02364
rfingers 7.12502
rthumb -4.84865 -27.9009
lclavicle -2.38542e-014 -4.05521e-014
lhumerus -22.8512 11.4455 -5.27639
lradius 17.3962
lwrist -2.56475
lhand -37.9398 -8.81693
lfingers 7.12502
lthumb -10.9812 20.8759
rfemur -34.0497 8.46507 16.2572
rtibia 25.0239
rfoot 32.9686 -4.67671
rtoes 19.5749
lfemur -26.0124 -5.71176 -25.4875
ltibia 36.0231
lfoot 2.73078 1.08294
ltoes -2.16942
746
root 7.46397 9.88607 11.94 95.3888 -2.2784 6.01275
lowerback 1.54024 0.858673 -1.75463
upperback -5.71825 1.54449 7.15234
thorax -7.14815 1.12138 8.51055
lowerneck -16.2397 3.71714 -1.1534
upperneck 20.7607 7.48356 -8.96128
head 9.60341 2.38588 -1.92986
rclavicle 7.95139e-015 1.53064e-014
rhumerus 87.1496 -24.0924 -26.544
rradius 21.0769
rwrist 32.5626
rhand -31.7764 1.72874
rfingers 7.12502
rthumb -5.03284 -28.1915
lclavicle 7.95139e-015 1.53064e-014
lhumerus -21.3914 12.6298 -6.32736
lradius 17.8973
lwrist -0.921551
lhand -37.8255 -8.2295
lfingers 7.12502
lthumb -10.8709 21.4691
rfemur -34.4004 8.61939 15.9666
rtibia 24.5508
rfoot 32.6326 -5.06591
rtoes 20.039
lfemur -25.6144 -5.33404 -25.6746
ltibia 36.6777
lfoot 1.86372 0.034156
ltoes -3.65735
747
root 7.4688 9.89267 11.9466 95.3411 -2.34032 6.18789
lowerback 1.6295 0.590189 -1.64502
upperback -5.57364 1.17805 7.25484
thorax -6.98302 0.923456 8.58509
lowerneck -16.5757 3.86333 -1.78434
upperneck 20.452 7.79164 -8.771
head 9.54189 2.50372 -1.7114
rclavicle 6.36111e-015 -7.48424e-014
rhumerus 87.9884 -23.9041 -28.324
rradius 20.8112
rwrist 33.2171
rhand -31.9756 1.38535
rfingers 7.12502
rthumb -5.22515 -28.5302
lclavicle 6.36111e-015 -7.48424e-014
lhumerus -19.9247 13.4092 -7.2023
lradius 18.4084
lwrist 0.639573
lhand -37.8329 -7.52017
lfingers 7.12502
lthumb -10.8781 22.1781
rfemur -34.6828 8.66637 15.7634
rtibia 24.1958
rfoot 32.3586 -5.39489
rtoes 20.2643
lfemur -25.3236 -5.04274 -25.8021
ltibia 37.3193
lfoot 1.16568 -0.995388
ltoes -4.74988
748
root 7.47285 9.89823 11.9519 95.2803 -2.38874 6.34451
lowerback 1.7107 0.370238 -1.56973
upperback -5.40479 0.875129 7.34441
thorax -6.79838 0.758346 8.65883
lowerneck -16.9989 3.95896 -2.37368
upperneck 20.2038 8.0404 -8.60131
head 9.51539 2.59148 -1.51484
rclavicle 3.33958e-014 -4.3186e-014
rhumerus 88.6898 -23.7485 -30.0571
rradius 20.5892
rwrist 33.793
rhand -32.1714 0.989916
rfingers 7.12502
rthumb -5.41418 -28.9209
lclavicle 3.33958e-014 -4.3186e-014
lhumerus -18.3755 13.8021 -7.88519
lradius 18.962
lwrist 2.23799
lhand -37.9005 -6.6726
lfingers 7.12502
lthumb -10.9433 23.0222
rfemur -34.8755 8.59084 15.6798
rtibia 23.9656
rfoot 32.1121 -5.63304
rtoes 20.0519
lfemur -25.1223 -4.822 -25.8713
ltibia 37.9094
lfoot 0.588639 -1.99594
ltoes -5.15895
749
root 7.47643 9.90234 11.9555 95.2237 -2.42311 6.48497
lowerback 1.75678 0.224245 -1.546
upperback -5.22567 0.669456 7.41359
thorax -6.59915 0.644357 8.73145
lowerneck -17.4902 3.98099 -2.85907
upperneck 20.0684 8.19291 -8.47791
head 9.54196 2.63109 -1.3639
rclavicle -3.18055e-015 6.03808e-014
rhumerus 89.1253 -23.6932 -31.5473
rradius 20.4221
rwrist 34.1087
rhand -32.3543 0.539667
rfingers 7.12502
rthumb -5.59077 -29.3666
lclavicle -3.18055e-015 6.03808e-014
lhumerus -16.676 13.8905 -8.37881
lradius 19.5763
lwrist 3.94227
lhand -37.9873 -5.73059
lfingers 7.12502
lthumb -11.027 23.9598
rfemur -34.9901 8.38758 15.7194
rtibia 23.8622
rfoot 31.8644 -5.79162
rtoes 19.814
lfemur -25.0281 -4.68066 -25.8835
ltibia 38.4123
lfoot 0.0703604 -2.92134
ltoes -5.77483
750
root 7.47963 9.90471 11.9573 95.1746 -2.44463 6.59975
lowerback 1.76011 0.17335 -1.59046
upperback -5.04971 0.58944 7.45872
thorax -6.40034 0.597319 8.80745
lowerneck -18.0097 3.91601 -3.19686
upperneck 20.0775 8.22309 -8.41906
head 9.62857 2.61024 -1.27583
rclavicle 1.51076e-014 -8.74653e-015
rhumerus 89.2017 -23.7764 -32.6482
rradius 20.3195
rwrist 34.0075
rhand -32.5165 0.0188544
rfingers 7.12502
rthumb -5.74742 -29.8832
lclavicle 1.51076e-014 -8.74653e-015
lhumerus -14.7755 13.8952 -8.7054
lradius 20.2526
lwrist 5.73258
lhand -38.0527 -4.80393
lfingers 7.12502
lthumb -11.0901 24.883
rfemur -35.0269 8.08298 15.8704
rtibia 23.879
rfoot 31.5952 -5.84712
rtoes 19.5019
lfemur -25.0428 -4.60115 -25.846
ltibia 38.8002
lfoot -0.448194 -3.72798
ltoes -6.31559
751
root 7.48229 9.90509 11.9571 95.1295 -2.44905 6.68129
lowerback 1.72606 0.223531 -1.7064
upperback -4.89019 0.644179 7.48276
thorax -6.22142 0.622811 8.89275
lowerneck -18.5131 3.76839 -3.36895
upperneck 20.2422 8.12993 -8.43479
head 9.77365 2.52881 -1.25839
rclavicle 1.98785e-014 4.00551e-014
rhumerus 88.8689 -24.0002 -33.269
rradius 20.2942
rwrist 33.3839
rhand -32.6516 -0.59273
rfingers 7.12502
rthumb -5.87789 -30.4912
lclavicle 1.98785e-014 4.00551e-014
lhumerus -12.6508 14.0539 -8.88343
lradius 20.9727
lwrist 7.56366
lhand -38.1021 -4.03904
lfingers 7.12502
lthumb -11.1378 25.6454
rfemur -34.9779 7.73284 16.1116
rtibia 24.0042
rfoot 31.275 -5.76107
rtoes 19.0379
lfemur -25.1582 -4.57681 -25.757
ltibia 39.0576
lfoot -1.00594 -4.3382
ltoes -6.75135
752
root 7.48481 9.90375 11.955 95.0987 -2.44241 6.7374
lowerback 1.65544 0.357155 -1.87931
upperback -4.76257 0.811219 7.48544
thorax -6.07625 0.709317 8.98133
lowerneck -18.9678 3.55785 -3.38773
upperneck 20.5444 7.93567 -8.52064
head 9.96549 2.39868 -1.30678
rclavicle 6.36111e-015 -8.13029e-014
rhumerus 88.1382 -24.3278 -33.4
rradius 20.3565
rwrist 32.2
rhand -32.7409 -1.30936
rfingers 7.12502
rthumb -5.96404 -31.2054
lclavicle 6.36111e-015 -8.13029e-014
lhumerus -10.3237 14.4717 -8.92886
lradius 21.7163
lwrist 9.46565
lhand -38.1132 -3.55434
lfingers 7.12502
lthumb -11.1485 26.1295
rfemur -34.851 7.37768 16.4024
rtibia 24.2222
rfoot 30.8988 -5.5345
rtoes 18.4356
lfemur -25.3857 -4.61678 -25.6253
ltibia 39.1819
lfoot -1.6085 -4.66809
ltoes -7.11508
753
root 7.487 9.90066 11.9509 95.0789 -2.42256 6.76742
lowerback 1.56275 0.551507 -2.08854
upperback -4.67284 1.06161 7.47214
thorax -5.97535 0.841731 9.06974
lowerneck -19.3529 3.30972 -3.28798
upperneck 20.9482 7.67354 -8.66062
head 10.1864 2.23752 -1.40682
rclavicle -1.59028e-015 -2.26615e-014
rhumerus 87.066 -24.7031 -33.0896
rradius 20.5081
rwrist 30.5048
rhand -32.7673 -2.15723
rfingers 7.12502
rthumb -5.98954 -32.0526
lclavicle -1.59028e-015 -2.26615e-014
lhumerus -7.84193 15.0772 -8.84797
lradius 22.473
lwrist 11.588
lhand -38.1246 -3.3773
lfingers 7.12502
lthumb -11.1595 26.3059
rfemur -34.6396 7.05908 16.7217
rtibia 24.5187
rfoot 30.4559 -5.15336
rtoes 17.6633
lfemur -25.7181 -4.71698 -25.4471
ltibia 39.1803
lfoot -2.23995 -4.65622
ltoes -7.4054
